<svg preserveAspectRatio="none" overflow="visible" style="display: block;" width="8" height="8" viewBox="0 0 8 8" fill="none" xmlns="http://www.w3.org/2000/svg">
<g id="star" opacity="0.55" clip-path="url(#clip0_0_118)">
<path id="Vector" d="M3.90712 0.692976C3.87915 0.710345 3.85658 0.735188 3.84197 0.764701L3.07231 2.32437C3.02154 2.42712 2.94657 2.51601 2.85384 2.58336C2.7611 2.65072 2.65339 2.69453 2.53997 2.71103L0.818307 2.9627C0.785542 2.96733 0.754736 2.98108 0.729399 3.00236C0.704063 3.02365 0.685214 3.05162 0.675 3.0831C0.664786 3.11457 0.663618 3.14829 0.671628 3.18039C0.679638 3.2125 0.696505 3.24171 0.720307 3.2647L1.96564 4.47703C2.04784 4.55709 2.10934 4.65593 2.14482 4.76505C2.1803 4.87417 2.18871 4.99028 2.16931 5.10337L1.87564 6.81637C1.86993 6.84894 1.87347 6.88245 1.88586 6.91311C1.89825 6.94376 1.919 6.97033 1.94574 6.98977C1.97248 7.00922 2.00414 7.02077 2.03712 7.02312C2.07011 7.02546 2.10308 7.0185 2.13231 7.00303L3.67131 6.1937C3.77273 6.14044 3.88558 6.11262 4.00014 6.11262C4.1147 6.11262 4.22755 6.14044 4.32897 6.1937L5.86831 7.00303C5.89754 7.0186 5.93056 7.02563 5.9636 7.02333C5.99663 7.02103 6.02836 7.0095 6.05516 6.99003C6.08195 6.97057 6.10274 6.94397 6.11514 6.91326C6.12754 6.88256 6.13107 6.84898 6.12531 6.81637L5.83131 5.10303C5.81199 4.99 5.82044 4.87396 5.85592 4.76491C5.8914 4.65586 5.95285 4.55707 6.03497 4.47703L7.28031 3.26437C7.30391 3.24135 7.32061 3.21219 7.3285 3.18018C7.3364 3.14817 7.33518 3.11459 7.32498 3.08324C7.31478 3.05188 7.29602 3.02401 7.2708 3.00277C7.24559 2.98152 7.21494 2.96776 7.18231 2.96303L5.46031 2.71103C5.34702 2.69441 5.23945 2.65053 5.14685 2.58319C5.05424 2.51584 4.97937 2.42702 4.92864 2.32437L4.15864 0.764701C4.14403 0.735188 4.12147 0.710345 4.09349 0.692976C4.06551 0.675607 4.03324 0.666403 4.00031 0.666403C3.96738 0.666403 3.9351 0.675607 3.90712 0.692976Z" stroke="#FFC400" stroke-linecap="round"/>
</g>
<defs>
<clipPath id="clip0_0_118">
<rect width="8" height="8" fill="white"/>
</clipPath>
</defs>
</svg>
