<svg preserveAspectRatio="none" overflow="visible" style="display: block;" width="64" height="64" viewBox="0 0 64 64" fill="none" xmlns="http://www.w3.org/2000/svg">
<g id="Club/Shirt">
<g id="Nigeria Shirt">
<path d="M34.9674 6.72771C36.5572 7.98683 37.0565 8.64729 39.1021 9.18904C39.9617 9.41665 41.3171 10.3246 42.2436 10.5679C44.3754 11.079 47.1771 11.2172 48.2781 13.4845C48.7819 14.522 50.2177 16.917 50.4859 17.9369C51.0955 20.2544 51.6459 21.6333 52.8609 23.6767C53.1639 24.1863 54.2964 26.7752 54.4309 27.3609C54.5038 27.5253 54.5762 27.716 54.683 27.8566L54.8291 28.3111L54.9752 28.8658L55.1473 29.2677C55.2934 29.427 55.3523 29.4718 55.3906 29.6871C55.3257 29.9566 55.1212 30.0784 54.8992 30.251C54.4225 30.5787 53.9482 30.9097 53.476 31.2439C52.9639 31.5176 52.711 31.6537 52.1646 31.8369C51.2881 32.0952 50.4685 32.2826 49.5568 32.3849C49.3671 32.4063 49.1655 32.4262 48.9898 32.4988C48.6011 32.4157 48.2937 32.3497 47.9807 32.1074L47.7898 31.9431C47.684 31.7581 47.5692 31.4895 47.4779 31.2904L47.3576 31.1388C46.6596 30.2041 46.0874 29.1681 45.3301 28.2748C45.0629 29.0038 45.0589 29.6477 44.8379 30.3027C44.5325 32.7813 43.7682 33.842 42.9791 36.1297C42.704 36.9274 42.5306 38.5694 42.352 39.5062C42.0834 40.892 41.823 42.2793 41.5705 43.6681C41.4831 44.1339 41.3981 44.6087 41.3039 45.0705C40.9153 46.9794 41.3936 48.9986 41.6494 50.9029C41.9352 53.0304 42.1151 55.1817 42.7756 57.2363C43.0635 58.1318 43.7415 59.3573 43.5721 60.3222C43.4937 60.7681 43.2557 60.7 42.5557 60.8H42.3557C42.0576 60.8051 41.7335 60.8054 41.2557 60.8L13.1557 60.8928C12.7557 60.7677 12.8557 60.7 12.4637 60.5084C12.3681 60.3858 12.1077 60.2609 11.8715 59.9701C11.9278 59.3359 12.1356 58.5681 12.1469 57.9443C12.179 56.1643 12.4012 54.5711 12.7826 52.8322C13.1807 51.0183 13.9868 49.1528 14.366 47.3486C14.7616 45.4664 14.5685 43.2587 14.9842 41.3209C15.1979 40.0891 14.7018 36.4642 14.302 35.1931C14.1623 34.6754 13.8374 33.2281 13.8932 32.7635C12.5934 32.4359 11.59 32.7292 10.1912 32.0947L9.80879 31.9158C9.5981 31.7317 9.56546 31.699 9.2957 31.6025C9.07796 31.4604 9.06471 31.3183 9 31.0756L9.06289 30.5572C9.11307 30.4496 9.15135 30.0541 9.16973 29.9115L9.19609 29.8C9.19573 29.6178 9.2398 29.2706 9.25898 29.0777C9.30562 28.3133 9.17204 26.7232 9.29785 26.106C9.8488 23.4031 9.61363 21.0384 9.56094 18.3439C9.52211 16.3578 11.4633 13.5477 13.3963 12.9541C16.0668 12.134 17.9078 11.0164 20.0238 9.16873L20.0998 9.25896C20.1822 9.8466 20.458 10.414 20.8018 10.8947L21.1189 11.1547C21.142 11.3817 21.1754 11.545 21.0969 11.7623L21.3164 11.7869L21.3918 11.9679C21.5021 12.1593 22.2187 12.9422 22.4197 13.176C22.5403 13.3813 22.7096 13.5239 22.8818 13.6885C23.0959 13.7108 23.4976 13.7738 23.6846 13.7213C24.241 13.7181 24.9024 13.7271 25.4512 13.8328L25.7713 13.7842C26.1896 13.7406 27.514 12.4076 28.6807 12.3625L28.618 12.2047C28.8354 12.2022 28.9113 12.1872 29.125 12.1427C29.3436 12.0232 29.3834 11.8067 29.4678 11.5656L29.5502 11.7943L29.575 11.8177C29.8568 11.8097 30.5258 11.0408 30.9918 10.949L31.0816 11.0562L31.1369 10.7869L31.3199 10.3826C31.5882 10.2765 31.9919 9.89982 32.226 9.69998L32.2121 9.5574L32.4943 9.41697L32.567 9.28826L32.6438 9.32517C32.8067 9.28599 32.918 8.94977 33.0082 8.77673C33.3806 8.06262 33.9138 7.47259 34.3627 6.81599L34.2854 6.67009L34.6396 6.39744L34.9674 6.72771Z" fill="#E3E2E2"/>
<path d="M34.2854 6.67009L34.6396 6.39744L34.9674 6.72771C36.5572 7.98683 37.0565 8.64729 39.1021 9.18904C39.9617 9.41665 41.3171 10.3246 42.2436 10.5679C44.3754 11.079 47.1771 11.2172 48.2781 13.4845C48.7819 14.522 50.2177 16.917 50.4859 17.9369C51.0955 20.2544 51.6459 21.6333 52.8609 23.6767C53.1639 24.1863 54.2964 26.7752 54.4309 27.3609C54.5038 27.5253 54.5762 27.716 54.683 27.8566L54.8291 28.3111L54.9752 28.8658L55.1473 29.2677C55.2934 29.427 55.3523 29.4718 55.3906 29.6871C55.3257 29.9566 55.1212 30.0784 54.8992 30.251C54.4225 30.5787 53.9482 30.9097 53.476 31.2439C52.9639 31.5176 52.711 31.6537 52.1646 31.8369C51.2881 32.0952 50.4685 32.2826 49.5568 32.3849C49.3671 32.4063 49.1655 32.4262 48.9898 32.4988C48.6011 32.4157 48.2937 32.3497 47.9807 32.1074L47.7898 31.9431C47.684 31.7581 47.5692 31.4895 47.4779 31.2904L47.3576 31.1388C46.6596 30.2041 46.0874 29.1681 45.3301 28.2748C45.0629 29.0038 45.0589 29.6477 44.8379 30.3027C44.5325 32.7813 43.7682 33.842 42.9791 36.1297C42.704 36.9274 42.5306 38.5694 42.352 39.5062C42.0834 40.892 41.823 42.2793 41.5705 43.6681C41.4831 44.1339 41.3981 44.6087 41.3039 45.0705C40.9153 46.9794 41.3936 48.9986 41.6494 50.9029C41.9352 53.0304 42.1151 55.1817 42.7756 57.2363C43.0635 58.1318 43.7415 59.3573 43.5721 60.3222C43.4937 60.7681 43.2557 60.7 42.5557 60.8H42.3557C41.8314 60.8147 41.3557 60.8 40.8557 60.8013C40.2677 60.8064 38.3557 60.8555 37.1557 60.8135C35.4098 60.8193 34.5557 60.8221 32.5557 60.8287C32.0609 60.8331 31.4998 60.8338 30.9998 60.8338L30.4947 60.8355C30.031 60.8304 29.9128 60.8374 29.735 60.838C29.4629 60.8389 29.6734 60.1074 29.6477 59.7774C29.5763 58.3185 29.6355 56.6124 29.4854 55.1934C29.5223 54.9402 29.4633 54.0911 29.458 53.7552C29.4362 52.3305 29.2908 50.903 29.2596 49.4803C29.1466 44.326 29.1983 39.1627 29.2134 34.0071C29.2155 33.309 29.205 32.4269 29.3029 31.7521L29.329 31.7286L29.3213 31.6596C29.7368 31.5975 29.8303 31.609 30.2509 31.6647L30.4423 31.7369C30.444 31.7333 30.2607 29.7156 30.2597 29.5149C30.2597 29.5217 29.9483 29.1536 30.0026 29.0992C30.476 28.6258 30.3142 27.7856 30.2882 27.1449C29.9612 26.6778 29.9113 26.5417 29.3638 26.4378C29.2816 24.8451 29.5583 22.867 29.6756 21.2825C29.9375 17.7432 30.3821 14.5271 31.0816 11.0562L31.1369 10.7869L31.3199 10.3826C31.5882 10.2765 31.9919 9.89982 32.226 9.69998L32.2121 9.5574L32.4943 9.41697L32.567 9.28826L32.6438 9.32517C32.8067 9.28599 32.918 8.94977 33.0082 8.77673C33.3806 8.06262 33.9138 7.47259 34.3627 6.81599L34.2854 6.67009Z" fill="#106C3F"/>
<path d="M34.2854 6.67009L34.6396 6.39744L34.9674 6.72771C36.5572 7.98683 37.0565 8.64729 39.1021 9.18904C39.9617 9.41665 41.3171 10.3246 42.2436 10.5679C44.3754 11.079 47.1771 11.2172 48.2781 13.4845C48.7819 14.522 50.2177 16.917 50.4859 17.9369C51.0955 20.2544 51.6459 21.6333 52.8609 23.6767C53.1639 24.1863 54.2964 26.7752 54.4309 27.3609C54.5038 27.5253 54.5762 27.716 54.683 27.8566L54.8291 28.3111L54.9752 28.8658L55.1473 29.2677C55.2934 29.427 55.3523 29.4718 55.3906 29.6871C55.3257 29.9566 55.1212 30.0784 54.8992 30.251C54.4225 30.5787 53.9482 30.9097 53.476 31.2439C52.9639 31.5176 52.711 31.6537 52.1646 31.8369C51.2881 32.0952 50.4685 32.2826 49.5568 32.3849C49.3671 32.4063 49.1655 32.4262 48.9898 32.4988C48.6011 32.4157 48.2937 32.3497 47.9807 32.1074L47.7898 31.9431C47.684 31.7581 47.5692 31.4895 47.4779 31.2904L47.3576 31.1388C46.6596 30.2041 46.0874 29.1681 45.3301 28.2748C44.5145 27.0064 43.6172 25.7723 42.7704 24.5301C42.4595 24.074 42.0834 22.8047 41.9124 22.2384C41.9663 21.7649 41.5012 20.0325 40.9253 20.0014C40.7591 20.2289 40.9297 20.4584 40.7817 20.8003C40.653 20.6923 40.7585 20.5687 40.7212 20.2916C39.9949 20.0478 39.8737 20.8494 39.7194 21.0556C39.2046 20.4305 40.451 20.2468 40.6137 20.0006C40.3946 19.6274 40.2895 19.2364 39.9961 18.892C39.7828 18.6416 38.9498 17.5101 38.9893 17.2249C38.8234 16.7841 37.1202 14.7414 36.6946 14.4585C35.2757 13.5151 32.6961 11.0875 31.1369 10.7869L31.3199 10.3826C31.5882 10.2765 31.9919 9.89982 32.226 9.69998L32.2121 9.5574L32.4943 9.41697L32.567 9.28826L32.6438 9.32517C32.8067 9.28599 32.918 8.94977 33.0082 8.77673C33.3806 8.06262 33.9138 7.47259 34.3627 6.81599L34.2854 6.67009Z" fill="#157B4B"/>
<path d="M34.2854 6.67009L34.6396 6.39744L34.9674 6.72771C36.5572 7.98683 37.0565 8.64729 39.1021 9.18904C39.9617 9.41665 41.3171 10.3246 42.2436 10.5679C44.3754 11.079 47.1771 11.2172 48.2781 13.4845C48.7819 14.522 50.2177 16.917 50.4859 17.9369C51.0955 20.2544 51.6459 21.6333 52.8609 23.6767C53.1639 24.1863 54.2964 26.7752 54.4309 27.3609C53.8393 27.7528 53.3896 28.1234 52.7595 28.4983C52.5424 28.1322 52.1907 27.2842 52.0304 26.8734C51.0305 25.0799 50.0711 23.3363 49.1909 21.4741C48.6196 20.2652 48.0873 19.0099 47.3986 17.8682C47.1598 17.4724 46.9244 17.0946 46.7087 16.6841C46.6489 16.6265 46.3655 16.1882 46.3007 16.0889C44.4892 13.318 41.1382 12.7792 38.256 11.6565C36.6169 11.018 34.8143 10.3683 33.1667 9.59471L33.0893 9.59877L32.9438 9.44174L32.4943 9.41697L32.567 9.28826L32.6438 9.32517C32.8067 9.28599 32.918 8.94977 33.0082 8.77673C33.3806 8.06262 33.9138 7.47259 34.3627 6.81599L34.2854 6.67009Z" fill="#ECECEC"/>
<path d="M34.2854 6.67009L34.6396 6.39744L34.9674 6.72771C34.7807 6.93052 34.7272 7.00777 34.5793 7.2393C34.2606 7.59227 33.026 9.04927 32.9438 9.44174L32.4943 9.41697L32.567 9.28826L32.6438 9.32517C32.8067 9.28599 32.918 8.94977 33.0082 8.77673C33.3806 8.06262 33.9138 7.47259 34.3627 6.81599L34.2854 6.67009Z" fill="#969696"/>
<path d="M34.5793 7.2393C34.4162 8.48818 33.5901 8.86521 33.1667 9.59471L33.0893 9.59877L32.9438 9.44174C33.026 9.04927 34.2606 7.59227 34.5793 7.2393Z" fill="#E5E4E5"/>
<path d="M54.8291 28.3111L54.9752 28.8658L55.1473 29.2677C55.2934 29.427 55.3523 29.4718 55.3906 29.6871C55.3257 29.9566 55.1212 30.0784 54.8992 30.251C54.4225 30.5787 53.9482 30.9097 53.476 31.2439C52.9639 31.5176 52.711 31.6537 52.1646 31.8369C51.2881 32.0952 50.4685 32.2826 49.5568 32.3849C49.3671 32.4063 49.1655 32.4262 48.9898 32.4988C48.6011 32.4157 48.2937 32.3497 47.9807 32.1074L47.7898 31.9431C47.684 31.7581 47.5692 31.4895 47.4779 31.2904C50.4242 31.0268 52.546 30.2637 54.8291 28.3111Z" fill="#107344"/>
<path d="M55.1473 29.2677C55.2934 29.427 55.3523 29.4718 55.3906 29.6871C55.3257 29.9566 55.1212 30.0784 54.8992 30.251C54.4225 30.5787 53.9482 30.9097 53.476 31.2439C52.9639 31.5176 52.711 31.6537 52.1646 31.8369C51.2881 32.0952 50.4685 32.2826 49.5568 32.3849C49.3671 32.4063 49.1655 32.4262 48.9898 32.4988C48.6011 32.4157 48.2937 32.3497 47.9807 32.1074C50.5984 31.8477 53.2322 31.2472 55.1473 29.2677Z" fill="#107344"/>
<path d="M47.7898 31.9431C48.0165 31.8407 49.2368 31.5846 49.5675 31.5156C51.7727 31.0552 53.2646 30.371 54.9752 28.8658L55.1473 29.2677C53.2322 31.2472 50.5984 31.8477 47.9807 32.1074L47.7898 31.9431Z" fill="#EFEFEE"/>
<path d="M54.683 27.8566L54.8291 28.3111C52.546 30.2637 50.4242 31.0268 47.4779 31.2904L47.3576 31.1388C47.683 30.9699 49.0446 30.6943 49.4883 30.5721C51.6686 29.9716 52.9737 29.2478 54.683 27.8566Z" fill="#EFEFEE"/>
<path d="M32.4943 9.41697L32.9438 9.44174L33.0893 9.59877C33.0361 10.4605 32.5437 10.4573 31.7918 10.723C33.4944 11.7326 35.5352 13.3272 37.0839 14.5854C37.7858 15.1555 39.6455 17.6241 39.9696 18.5222C39.5846 18.145 39.1258 17.3495 38.9893 17.2249C38.8234 16.7841 37.1202 14.7414 36.6946 14.4585C35.2757 13.5151 32.6961 11.0875 31.1369 10.7869L31.3199 10.3826C31.5882 10.2765 31.9919 9.89982 32.226 9.69998L32.2121 9.5574L32.4943 9.41697Z" fill="#0B6938"/>
<path d="M29.3213 31.6596C29.7368 31.5975 29.8303 31.609 30.2509 31.6647L30.4423 31.7369C30.1704 31.843 29.5799 31.8269 29.3029 31.7521L29.329 31.7286L29.3213 31.6596Z" fill="#569275"/>
<path d="M34.0345 26.4357C36.3616 26.4042 36.1151 27.6802 36.0785 29.5074C36.0623 30.3149 36.0638 31.1581 36.0622 31.9676L34.6908 31.986C34.6633 31.2504 34.6782 30.5697 34.6942 29.836C34.5049 29.7245 34.4353 29.7269 34.2664 29.7614C34.035 30.0789 34.1259 31.4923 34.127 31.9549C33.7003 31.9589 33.2392 31.9429 32.8098 31.9355C32.7227 31.2297 32.6304 27.779 32.9455 27.0548C33.0984 26.7039 33.6529 26.5165 34.0345 26.4357Z" fill="#90B2A2"/>
<path d="M33.8575 26.6667C33.9683 26.6559 34.0795 26.6485 34.1908 26.6444C36.0322 26.5842 35.9509 27.5141 35.9196 28.9638C35.8993 29.9062 35.898 30.8753 35.8839 31.8196L34.8762 31.8181L34.8744 29.6206L34.7645 29.528C34.5278 29.4972 34.3299 29.4381 34.1305 29.5452C33.845 29.9197 33.9708 31.2684 33.9773 31.808C33.6573 31.7683 33.2791 31.7624 32.9528 31.749C32.9475 30.6362 32.8806 28.1505 33.0199 27.1355C33.3169 26.9262 33.5356 26.8244 33.8575 26.6667Z" fill="#0C0706"/>
<path d="M34.0072 27.2449C34.105 27.2413 34.2028 27.2392 34.3007 27.2385C35.1742 27.2371 34.8964 28.2658 34.869 28.9197L33.9865 28.9259C33.9759 28.3654 33.9829 27.8049 34.0072 27.2449Z" fill="#969696"/>
<path d="M34.1839 27.4104C34.4052 27.4621 34.4464 27.4657 34.6124 27.6175C34.7555 27.9084 34.7043 28.3806 34.6959 28.7206C34.5442 28.7406 34.4618 28.7446 34.3087 28.7448L34.1761 28.6066C34.062 28.3059 34.1525 27.753 34.1839 27.4104Z" fill="#0B6938"/>
<path d="M30.8898 26.4241C31.3329 26.4207 31.8054 26.4362 32.2511 26.4434C32.306 27.1828 32.3165 31.3119 32.1912 31.8556C31.7635 31.8653 31.2599 31.8308 30.827 31.812C30.7669 30.6228 30.7995 27.6266 30.8898 26.4241Z" fill="#90B2A2"/>
<path d="M31.0921 26.602L32.0067 26.6266C32.0135 28.3192 32.0084 30.0119 31.9915 31.7044L31.0505 31.6674C31.0358 30.0128 31.0798 28.2646 31.0921 26.602Z" fill="#0C0706"/>
<path d="M33.4393 48.3881C33.6918 48.7383 33.4941 49.9549 33.42 50.393C33.6459 50.2556 34.249 50.0481 34.4025 50.3527L34.3289 50.5248C34.2292 50.7851 34.2142 50.846 34.0257 51.0569C33.9874 50.5535 33.5004 50.7656 33.4106 50.5527C33.2321 50.1298 33.4538 48.934 33.4393 48.3881Z" fill="#0B6938"/>
<path d="M33.2369 32.7975L33.5369 32.7842L33.5466 32.8436C33.1957 32.9535 32.843 33.0577 32.4887 33.1559C32.4662 33.5452 32.4312 33.5159 32.1044 33.6382C31.8754 33.5372 31.6332 33.3779 31.6375 33.1119C31.8549 32.8433 32.5664 32.9846 33.2369 32.7975Z" fill="#0B6938"/>
<path d="M20.0238 9.16873L20.0998 9.25896C20.1822 9.8466 20.458 10.414 20.8018 10.8947L21.1189 11.1547C21.142 11.3817 21.1754 11.545 21.0969 11.7623C20.8751 12.2265 20.7224 13.6226 20.6429 14.211C20.0975 18.0842 19.7974 21.988 19.7444 25.8991C19.8061 31.0799 19.7303 36.3384 19.747 41.5307L19.7535 46.8143C19.7524 47.4025 19.7702 49.0509 19.6864 49.5749C19.6663 51.3349 19.6363 53.0949 19.5963 54.8545C19.5753 55.7095 19.4992 57.0206 19.5299 57.8527C19.4668 58.4854 19.453 58.9756 19.445 59.6128C19.4102 59.9029 19.4441 60.7444 19.4162 60.8721L19.1929 60.8728C18.5764 60.8749 18.4887 60.8752 18.0557 60.8766L17.3995 60.8788L16.8557 60.9C16.0557 60.8832 14.2557 61 12.9869 60.8774C12.6166 60.7704 12.6557 60.7 12.5557 60.6L12.4637 60.5084C12.3681 60.3858 12.1077 60.2609 11.8715 59.9701C11.9278 59.3359 12.1356 58.5681 12.1469 57.9443C12.179 56.1643 12.4012 54.5711 12.7826 52.8322C13.1807 51.0183 13.9868 49.1528 14.366 47.3486C14.7616 45.4664 14.5685 43.2587 14.9842 41.3209C15.1979 40.0891 14.7018 36.4642 14.302 35.1931C14.1623 34.6754 13.8374 33.2281 13.8932 32.7635C12.5934 32.4359 11.59 32.7292 10.1912 32.0947L9.80879 31.9158C9.5981 31.7317 9.56546 31.699 9.2957 31.6025C9.07796 31.4604 9.06471 31.3183 9 31.0756L9.06289 30.5572C9.11307 30.4496 9.15135 30.0541 9.16973 29.9115L9.19609 29.8C9.19573 29.6178 9.2398 29.2706 9.25898 29.0777C9.30562 28.3133 9.17204 26.7232 9.29785 26.106C9.8488 23.4031 9.61363 21.0384 9.56094 18.3439C9.52211 16.3578 11.4633 13.5477 13.3963 12.9541C16.0668 12.134 17.9078 11.0164 20.0238 9.16873Z" fill="#188450"/>
<path d="M20.0238 9.16873L20.0998 9.25896C20.1822 9.8466 20.458 10.414 20.8018 10.8947C19.8539 11.2813 18.776 12.1292 17.86 12.5597C15.4305 13.7013 11.9353 14.8647 10.8374 17.6031C9.92209 19.8861 10.4882 23.187 10.482 25.7449C10.4522 26.8638 10.4505 28.4185 10.3508 29.5123C9.95854 29.4371 9.61334 29.2536 9.25898 29.0777C9.30562 28.3133 9.17204 26.7232 9.29785 26.106C9.8488 23.4031 9.61363 21.0384 9.56094 18.3439C9.52211 16.3578 11.4633 13.5477 13.3963 12.9541C16.0668 12.134 17.9078 11.0164 20.0238 9.16873Z" fill="#EFEFEE"/>
<path d="M9.25898 29.0777C9.61334 29.2536 9.95854 29.4371 10.3508 29.5123C10.2693 29.8239 10.4547 29.9427 10.4839 30.2972C11.1257 30.5737 12.1753 30.7875 12.8967 30.9763C13.1681 31.0271 13.3859 31.0171 13.5515 31.1864L13.4963 31.3467C13.6836 31.4246 13.6213 31.4017 13.8615 31.3404L13.8698 31.819L13.7783 31.8867C13.7815 32.3905 13.9675 32.3769 13.8932 32.7635C12.5934 32.4359 11.59 32.7292 10.1912 32.0947L9.80879 31.9158C9.5981 31.7317 9.56546 31.699 9.2957 31.6025C9.07796 31.4604 9.06471 31.3183 9 31.0756L9.06289 30.5572C9.11307 30.4496 9.15135 30.0541 9.16973 29.9115L9.19609 29.8C9.19573 29.6178 9.2398 29.2706 9.25898 29.0777Z" fill="#1F7649"/>
<path d="M9.06289 30.5572C10.4399 31.1743 11.6271 31.811 13.2184 31.9217C13.4473 31.8275 13.5393 31.8554 13.7783 31.8867C13.7815 32.3905 13.9675 32.3769 13.8932 32.7635C12.5934 32.4359 11.59 32.7292 10.1912 32.0947L9.80879 31.9158C9.5981 31.7317 9.56546 31.699 9.2957 31.6025C9.07796 31.4604 9.06471 31.3183 9 31.0756L9.06289 30.5572Z" fill="#107344"/>
<path d="M9.06289 30.5572C10.4399 31.1743 11.6271 31.811 13.2184 31.9217C13.2157 32.0754 13.2285 32.0181 13.1115 32.1584C11.7433 32.5226 10.1006 31.4664 9.05321 31.0941L9 31.0756L9.06289 30.5572Z" fill="#EFEFEE"/>
<path d="M9.25898 29.0777C9.61334 29.2536 9.95854 29.4371 10.3508 29.5123C10.2693 29.8239 10.4547 29.9427 10.4839 30.2972C11.1257 30.5737 12.1753 30.7875 12.8967 30.9763C12.754 31.1694 12.7348 31.2051 12.5069 31.2693C11.7632 31.1772 9.42387 30.625 9.16973 29.9115L9.19609 29.8C9.19573 29.6178 9.2398 29.2706 9.25898 29.0777Z" fill="#EFEFEE"/>
<path d="M9.25898 29.0777C9.61334 29.2536 9.95854 29.4371 10.3508 29.5123C10.2693 29.8239 10.4547 29.9427 10.4839 30.2972C10.016 30.0822 9.68439 29.9649 9.19609 29.8C9.19573 29.6178 9.2398 29.2706 9.25898 29.0777Z" fill="#107344"/>
<path d="M12.8967 30.9763C13.1681 31.0271 13.3859 31.0171 13.5515 31.1864L13.4963 31.3467L12.5069 31.2693C12.7348 31.2051 12.754 31.1694 12.8967 30.9763Z" fill="#E5E4E5"/>
<path d="M19.7444 25.8991C19.8061 31.0799 19.7303 36.3384 19.747 41.5307L19.7535 46.8143C19.7524 47.4025 19.7702 49.0509 19.6864 49.5749C19.644 49.0997 19.6742 48.1368 19.6752 47.6368L19.6787 43.9199L19.6683 31.6562C19.2507 31.6814 18.7643 31.6822 18.3405 31.6926C18.2566 30.0158 18.3106 28.0782 18.3428 26.3923C18.5965 26.3839 18.7821 26.3945 19.0355 26.4206C19.6867 26.4875 19.6579 26.4453 19.7444 25.8991Z" fill="#90B2A2"/>
<path d="M18.5188 26.5648C18.7801 26.5632 19.1223 26.5349 19.3498 26.6417C19.4663 27.2059 19.3994 30.6563 19.3933 31.4399L18.5078 31.4341L18.5188 26.5648Z" fill="#0C0706"/>
<path d="M16.5898 26.4109C17.0252 26.3875 17.3506 26.361 17.7874 26.4047C17.8134 27.0535 17.9083 31.1937 17.7827 31.6025C17.4754 31.7221 16.9652 31.6966 16.6211 31.6966C16.5035 31.1906 16.3937 30.7912 16.2396 30.2951L16.16 30.259C15.9651 30.7945 16.1054 31.4319 15.9907 31.6748C15.5988 31.7031 15.2006 31.6941 14.8074 31.692L14.8063 26.4142C15.8861 26.3859 16.4108 26.3899 16.2425 27.7043L16.3134 27.8433C16.6553 27.4992 16.5806 26.9252 16.5898 26.4109Z" fill="#0C0706"/>
<path d="M16.5898 26.4109C17.0252 26.3875 17.3506 26.361 17.7874 26.4047C17.8134 27.0535 17.9083 31.1937 17.7827 31.6025L17.6514 31.4403C17.6339 30.8129 17.6815 26.9219 17.5576 26.6265C17.2768 26.5682 17.2291 26.5725 16.9448 26.6C16.8229 26.7979 16.8638 29.1964 16.8606 29.6104C16.6542 29.0924 16.4672 28.3851 16.3134 27.8433C16.6553 27.4992 16.5806 26.9252 16.5898 26.4109Z" fill="#90B2A2"/>
<path d="M14.8063 26.4142C15.8861 26.3859 16.4108 26.3899 16.2425 27.7043L16.2137 27.6382C16.0594 27.2801 16.005 26.795 15.8225 26.6086C15.5385 26.5665 15.46 26.5842 15.1789 26.6214C14.9807 26.82 15.0122 31.1525 15.1676 31.4196C15.4636 31.4443 15.6047 31.4405 15.9022 31.4225C15.9699 31.5327 15.9932 31.5454 15.9907 31.6748C15.5988 31.7031 15.2006 31.6941 14.8074 31.692L14.8063 26.4142Z" fill="#BDD7CF"/>
<path d="M15.7947 28.5572C16.0692 29.2061 16.2432 29.7132 16.4335 30.3942C16.6686 31.236 16.7788 31.4811 17.6514 31.4403L17.7827 31.6025C17.4754 31.7221 16.9652 31.6966 16.6211 31.6966C16.5035 31.1906 16.3937 30.7912 16.2396 30.2951L16.16 30.259C15.9651 30.7945 16.1054 31.4319 15.9907 31.6748C15.9932 31.5454 15.9699 31.5327 15.9022 31.4225C15.7825 30.5987 15.8657 29.4583 15.7947 28.5572Z" fill="#90B2A2"/>
<path d="M29.3638 26.4378C29.9113 26.5417 29.9612 26.6778 30.2882 27.1449C30.3142 27.7856 30.476 28.6258 30.0026 29.0992C29.9483 29.1536 30.2597 29.5217 30.2597 29.5149C30.2607 29.7156 30.444 31.7333 30.4423 31.7369L30.2509 31.6647C29.8303 31.609 29.7368 31.5975 29.3213 31.6596C29.0536 31.2709 29.1491 29.9369 29.1578 29.4013C28.8929 29.3796 28.5073 29.381 28.2319 29.3729L28.2208 31.6528C27.9349 31.6555 27.585 31.6308 27.2943 31.6181C27.319 29.9142 27.2955 28.2098 27.325 26.5046L28.8247 26.5167C29.0441 26.5028 29.1544 26.481 29.3638 26.4378Z" fill="#0C0706"/>
<path d="M29.3638 26.4378C29.9113 26.5417 29.9612 26.6778 30.2882 27.1449C30.3142 27.7856 30.476 28.6258 30.0026 29.0992C29.9483 29.1536 30.2597 29.5217 30.2597 29.5149C30.2607 29.7156 30.444 31.7333 30.4423 31.7369L30.2509 31.6647C30.0031 30.8509 30.1807 30.247 30.0445 29.4435C30.0443 29.4425 29.7409 29.1654 29.776 29.094C29.7965 29.0523 30.0218 28.8061 30.0264 28.7836C30.1507 28.1756 30.2948 27.4013 29.8628 26.8783C29.5947 26.5522 29.2134 26.5519 28.8247 26.5167C29.0441 26.5028 29.1544 26.481 29.3638 26.4378Z" fill="#BDD7CF"/>
<path d="M28.2331 27.1003L29.1878 27.1058L29.1758 28.7658L28.2403 28.7599L28.2331 27.1003Z" fill="#D2D0D1"/>
<path d="M26.9862 59.1498C26.7386 59.0458 25.5817 58.6478 25.5019 58.5585C25.4851 57.9605 26.882 57.5338 26.9665 56.7741C27.0122 56.3628 27.0975 55.3913 27.3051 55.0598C27.3714 55.2665 27.0974 56.8501 27.003 57.0974C26.8436 57.5146 25.9947 58.1015 25.6095 58.4226C25.741 58.5533 26.6555 58.8331 26.9433 58.9498C26.7659 59.3462 26.2514 60.2218 26.4227 60.5939C26.7934 60.732 28.2294 60.3673 28.7139 60.4559C28.8719 60.4847 29.2794 60.5053 29.4469 60.5053C29.998 59.0074 28.8474 59.4289 28.253 59.2311C28.4367 59.0723 28.9859 59.2687 29.4119 59.1092C29.5544 58.791 29.2873 55.9553 29.4854 55.1934C29.6355 56.6124 29.5763 58.3185 29.6477 59.7774C29.6405 60.1879 29.5885 60.4295 29.5967 60.8385C27.6711 60.8451 25.8956 60.8475 23.9557 60.8571C23.3218 60.7508 21.5421 60.8577 20.8557 60.8673L20.6557 60.868C20.3104 60.8513 19.8162 60.8721 19.4162 60.8721L19.4597 60.8C20.5345 60.721 21.0227 60.5821 22.0826 60.6124C22.8249 60.5231 24.4034 60.7947 25.0178 60.4596C25.3059 60.1259 25.4692 59.9169 25.5209 59.4754C25.226 59.2503 24.9514 59.6895 24.4974 59.553C24.0469 59.1631 24.4656 58.2971 24.712 57.8652C24.5752 58.2388 24.4549 58.9099 24.3703 59.3211C25.2378 59.3669 26.0566 59.1735 26.9862 59.1498Z" fill="#E5E4E5"/>
<path d="M28.6807 12.3625C28.3436 12.7144 26.342 13.7897 25.7778 13.8741C25.7154 13.8835 25.5253 13.8508 25.4512 13.8328L25.7713 13.7842C26.1896 13.7406 27.514 12.4076 28.6807 12.3625Z" fill="#86817D"/>
<path d="M20.9633 26.5147C21.5127 26.4752 21.868 26.4861 22.4203 26.5106C22.6316 26.6503 22.8748 26.8651 23.0744 27.0317L23.0945 27.9651L22.0608 27.9674C22.0776 27.6063 22.1877 27.252 21.8567 27.0673C21.5631 27.0666 21.5445 27.0218 21.3198 27.1465C21.2041 27.8221 21.2545 30.2002 21.2548 30.9721L22.0987 30.9825C22.0832 30.4921 22.2008 29.8779 22.0418 29.4279C22.004 29.3209 21.842 29.2901 21.7084 29.2368C21.7183 29.0261 21.7053 28.9851 21.8127 28.8137C22.1416 28.6432 22.7075 28.7221 23.1042 28.7398C23.1055 29.5462 23.1124 30.3185 23.0607 31.1247C21.9424 31.7509 21.3726 31.8019 20.3011 31.049C20.1927 30.0822 20.2557 28.1109 20.2692 27.115C20.5165 26.8587 20.6794 26.7336 20.9633 26.5147Z" fill="#0C0706"/>
<path d="M24.5375 26.507C25.1802 26.5114 25.9147 26.4487 26.5402 26.5481L26.6141 26.6691C26.5723 26.9504 26.6235 26.8583 26.4413 27.0363C26.0917 27.1649 25.3398 27.0961 24.9122 27.091L24.9205 28.7148C25.3115 28.7079 26.1344 28.6009 26.2523 29.0701C25.9028 29.4483 25.4025 29.3436 24.9164 29.3327L24.9136 30.9791C25.515 31.0566 26.0572 30.8579 26.6527 31.1041L26.7397 31.3311C26.6313 31.4404 26.468 31.5049 26.32 31.5406C25.5043 31.7457 24.6403 31.6113 23.9252 31.1682C23.8505 29.9341 23.8707 28.2489 23.9123 27.0022L24.5375 26.507Z" fill="#0C0706"/>
<path d="M26.8268 10.9475C29.1576 9.65378 32.6101 7.37345 33.144 4.58459C33.3234 4.78452 33.5658 5.07334 33.7492 5.25621C34.0116 5.58238 34.3678 6.19441 34.6396 6.39744L34.2854 6.67009L34.3627 6.81599C33.9138 7.47259 33.3806 8.06262 33.0082 8.77673C32.918 8.94977 32.8067 9.28599 32.6438 9.32517L32.567 9.28826L32.4943 9.41697L32.2121 9.5574L32.226 9.69998C31.9919 9.89982 31.5882 10.2765 31.3199 10.3826L31.1369 10.7869L31.0816 11.0562L30.9918 10.949C30.5258 11.0408 29.8568 11.8097 29.575 11.8177L29.5502 11.7943L29.4678 11.5656C29.3834 11.8067 29.3436 12.0232 29.125 12.1427C28.9113 12.1872 28.8354 12.2022 28.618 12.2047L28.6807 12.3625C27.514 12.4076 26.1896 13.7406 25.7713 13.7842L25.4512 13.8328C24.9024 13.7271 24.241 13.7181 23.6846 13.7213C23.4976 13.7738 23.0959 13.7108 22.8818 13.6885C22.7096 13.5239 22.5403 13.3813 22.4197 13.176C22.2187 12.9422 21.5021 12.1593 21.3918 11.9679C21.7884 11.9451 22.1571 12.0484 22.5447 12.1343C22.8108 12.1723 23.0956 12.166 23.2765 12.3198C23.2828 12.6581 23.1536 12.8423 23.2586 13.0334C23.5473 13.0241 23.7861 12.8471 23.9745 12.6406C24.0364 12.5232 24.361 12.3669 24.488 12.3064C25.2587 11.813 26.028 11.392 26.8268 10.9475Z" fill="#22201F"/>
<path d="M26.8268 10.9475C29.1576 9.65378 32.6101 7.37345 33.144 4.58459C33.3234 4.78452 33.5658 5.07334 33.7492 5.25621C32.6499 7.50981 31.6741 8.33167 29.7401 9.83835C28.999 10.3371 23.7185 13.4458 23.6846 13.7213C23.4976 13.7738 23.0959 13.7108 22.8818 13.6885C22.7096 13.5239 22.5403 13.3813 22.4197 13.176C22.2187 12.9422 21.5021 12.1593 21.3918 11.9679C21.7884 11.9451 22.1571 12.0484 22.5447 12.1343C22.8108 12.1723 23.0956 12.166 23.2765 12.3198C23.2828 12.6581 23.1536 12.8423 23.2586 13.0334C23.5473 13.0241 23.7861 12.8471 23.9745 12.6406C24.0364 12.5232 24.361 12.3669 24.488 12.3064C25.2587 11.813 26.028 11.392 26.8268 10.9475Z" fill="#E5E4E5"/>
<path d="M21.3918 11.9679C21.7884 11.9451 22.1571 12.0484 22.5447 12.1343C22.2818 12.2592 22.3653 12.2029 22.2022 12.4736C22.2221 12.7168 22.1798 12.6739 22.313 12.8116C22.4432 12.7343 22.476 12.7105 22.5906 12.6116L22.6625 12.693C22.5952 12.9318 22.5548 12.9799 22.4197 13.176C22.2187 12.9422 21.5021 12.1593 21.3918 11.9679Z" fill="#C5C3C4"/>
<path d="M29.9615 9.92354C30.153 9.78615 30.401 9.81317 30.6413 9.81066C30.9104 9.81915 31.107 9.77478 31.291 9.90848C31.2943 10.0528 31.3011 10.2412 31.3199 10.3826L31.1369 10.7869L31.0816 11.0562L30.9918 10.949C30.5258 11.0408 29.8568 11.8097 29.575 11.8177L29.5502 11.7943L29.4678 11.5656C29.6427 11.0503 29.8666 10.4503 29.9615 9.92354Z" fill="#EFEFEE"/>
<path d="M29.5502 11.7943C29.7035 11.3176 30.8402 10.3493 31.3199 10.3826L31.1369 10.7869L31.0816 11.0562L30.9918 10.949C30.5258 11.0408 29.8568 11.8097 29.575 11.8177L29.5502 11.7943Z" fill="#86817D"/>
<path d="M26.3642 12.1131C27.0893 12.1312 27.9033 12.1336 28.618 12.2047L28.6807 12.3625C27.514 12.4076 26.1896 13.7406 25.7713 13.7842C26.0083 13.1857 26.1795 12.728 26.3642 12.1131Z" fill="#EFEFEE"/>
<path d="M34.2854 6.67009L34.3627 6.81599C33.9138 7.47259 33.3806 8.06262 33.0082 8.77673C32.918 8.94977 32.8067 9.28599 32.6438 9.32517L32.567 9.28826C32.6826 8.555 32.7881 7.82026 32.8834 7.08405C33.3869 6.95234 33.7945 6.8413 34.2854 6.67009Z" fill="#E5E4E5"/>
<path d="M32.2121 9.5574L32.226 9.69998C31.9919 9.89982 31.5882 10.2765 31.3199 10.3826C31.3011 10.2412 31.2943 10.0528 31.291 9.90848C31.107 9.77478 30.9104 9.81915 30.6413 9.81066C31.1546 9.69371 31.5883 9.72986 32.2121 9.5574Z" fill="#E5E4E5"/>
<path d="M21.0271 6.06433C21.2922 6.80704 20.9822 7.18726 21.2021 7.91262C21.8278 9.27645 22.3545 10.2934 23.42 11.3367C23.6922 11.6147 24.1699 12.1471 24.488 12.3064C24.361 12.3669 24.0364 12.5232 23.9745 12.6406C23.7861 12.8471 23.5473 13.0241 23.2586 13.0334C23.1536 12.8423 23.2828 12.6581 23.2765 12.3198C23.0956 12.166 22.8108 12.1723 22.5447 12.1343C22.1571 12.0484 21.7884 11.9451 21.3918 11.9679L21.3164 11.7869L21.0969 11.7623C21.1754 11.545 21.142 11.3817 21.1189 11.1547L20.8018 10.8947C20.458 10.414 20.1822 9.8466 20.0998 9.25896L20.0238 9.16873C20.1851 8.80874 20.4416 7.9609 20.5774 7.55396C20.7994 6.96371 20.9067 6.67851 21.0271 6.06433Z" fill="#22201F"/>
<path d="M21.0271 6.06433C21.2922 6.80704 20.9822 7.18726 21.2021 7.91262C21.8278 9.27645 22.3545 10.2934 23.42 11.3367C23.6922 11.6147 24.1699 12.1471 24.488 12.3064C24.361 12.3669 24.0364 12.5232 23.9745 12.6406C22.241 11.2437 21.3511 9.56371 20.5774 7.55396C20.7994 6.96371 20.9067 6.67851 21.0271 6.06433Z" fill="#D2D0D1"/>
<path d="M20.0998 9.25896L20.2665 9.39537C20.6277 9.55506 21.0473 9.75388 21.412 9.89113C21.4033 10.4937 21.3096 11.2732 21.3164 11.7869L21.0969 11.7623C21.1754 11.545 21.142 11.3817 21.1189 11.1547L20.8018 10.8947C20.458 10.414 20.1822 9.8466 20.0998 9.25896Z" fill="#E5E4E5"/>
<path d="M20.0998 9.25896L20.2665 9.39537C20.3556 10.1182 21.0778 10.1694 21.1189 11.1547L20.8018 10.8947C20.458 10.414 20.1822 9.8466 20.0998 9.25896Z" fill="#969696"/>
</g>
</g>
</svg>
